<svg xmlns="http://www.w3.org/2000/svg" viewBox="0 0 464.28 176.25"><defs><style>.cls-1{fill:none;}.cls-2{fill:#2d6ab3;}.cls-3{fill:#a2c089;}.cls-4{fill:#657cbc;}.cls-5{fill:#ec2353;}.cls-6{fill:#91c9b8;}.cls-7{fill:#f37f94;}.cls-8{fill:#d64873;}.cls-9{fill:#d01e4e;}.cls-10{fill:#f37466;}.cls-11{fill:#f06b7d;}.cls-12{fill:#f0537f;}.cls-13{fill:#503f7a;}.cls-14{fill:#6e57a5;}.cls-15{fill:#7b1f2d;}.cls-16{fill:#89489b;}.cls-17{fill:#f0b656;}.cls-18{fill:#46315b;}.cls-19{fill:#5ea687;}.cls-20{fill:#a3509e;}.cls-21{fill:#ef403a;}.cls-22{fill:#ef3f67;}.cls-23{fill:#cb2030;}.cls-24{fill:#1f498a;}.cls-25{fill:#f6927c;}.cls-26{fill:#613e97;}.cls-27{fill:#6d183c;}.cls-28{fill:#5c3a71;}.cls-29{fill:#72c4b7;}.cls-30{fill:#6ea2b4;}.cls-31{fill:#019fc9;}.cls-32{fill:#264080;}.cls-33{fill:#0e8ab9;}.cls-34{fill:#fff;}.cls-35{fill:#91cab7;}.cls-36{fill:#68b6c0;}.cls-37{fill:#2e6bb2;}.cls-38{fill:#61a787;}.cls-39{fill:#9cc38a;}.cls-40{fill:#76c044;}.cls-41{fill:#74c3b6;}.cls-42{fill:#6fa2b3;}.cls-43{fill:#118bba;}.cls-44{fill:#03a0ca;}.cls-45{fill:#f3f4f4;}</style></defs><g id="Layer_2" data-name="Layer 2"><g id="Layer_1-2" data-name="Layer 1"><polygon class="cls-1" points="102.59 127.87 124.7 90.84 124.7 90.83 102.59 127.87"/><polygon class="cls-1" points="146.05 55.06 130.41 56.58 130.41 56.58 146.04 55.07 146.05 55.06"/><polygon class="cls-1" points="116.38 57.94 116.38 57.94 89.45 60.54 116.38 57.94"/><polygon class="cls-2" points="102.84 128.56 107.5 141.22 111.02 139.29 103.01 128.45 102.84 128.56"/><polygon class="cls-3" points="153.88 115.91 158.84 113.2 158.84 91.78 140.12 104.08 153.88 115.91"/><polygon class="cls-4" points="111.02 139.29 153.88 115.91 140.12 104.08 103.01 128.45 111.02 139.29"/><path class="cls-5" d="M124.7,90.83l-6.61-5.68q-7.57,18.25-16.26,40.66l.76,2.06Z"/><path class="cls-5" d="M89.45,60.54,77.74,50.47,74.6,51.8,78,61.09l.19.54,8.38,22.75L87,85.57l5.2,14.12,4.24,11.53,10.26-25.67c1-2.58,2-5.13,2.92-7.66L96.35,66.47Z"/><polygon class="cls-5" points="102.59 127.88 102.84 128.56 103.01 128.45 102.59 127.88"/><polygon class="cls-6" points="158.84 120.18 158.84 113.2 153.88 115.91 158.84 120.18"/><path class="cls-7" d="M89.45,60.54l26.93-2.6q1.32-4.39,2.46-8.66a168.68,168.68,0,0,0,4-18L77.74,50.47Z"/><path class="cls-7" d="M139.43,37.51q-4.22,8.45-9,19.07l15.64-1.52Z"/><path class="cls-5" d="M37.55,21.29c.9,2.12,1.79,4.33,2.66,6.61l18.5,6.22L35.66,14.31H32a5.55,5.55,0,0,1,2.06.8Q35.75,16.37,37.55,21.29Z"/><path class="cls-8" d="M40.21,27.9c1.24,3.22,2.45,6.58,3.65,10.11Q46.13,44.72,49,54l9.69-19.83Z"/><polygon class="cls-9" points="52.19 64.14 62.83 98.05 71.92 62.23 52.19 64.14"/><path class="cls-9" d="M41.76,97.11q-4-12.66-8-24.15l-1.16-3.28-9.49,4Z"/><path class="cls-10" d="M72.43,45.91h0l5.3,4.55L122.8,31.32a51,51,0,0,0,.59-6.27c0-.22,0-.44,0-.64a30.79,30.79,0,0,0-.42-4.8c-.11-.72-.25-1.48-.42-2.27l-3.62-3H68.39l-4.33,8.86Z"/><path class="cls-11" d="M74.6,51.8l3.14-1.33-5.3-4.55h0L58.71,34.12,49,54l2.1,6.79.29.92,23.15-9.85Z"/><polygon class="cls-12" points="72.43 45.91 64.06 23.17 58.71 34.12 72.43 45.91 72.43 45.91"/><path class="cls-13" d="M34.21,119.58l11.33,46.64,7.79-30.7q-3.77-13.17-7.51-25.4-2-6.66-4.06-13l-18.7-23.4Z"/><polygon class="cls-14" points="23.06 73.72 12.22 105.18 4.54 127.48 45.54 166.22 34.2 119.58 23.06 73.72"/><path class="cls-15" d="M32.55,69.68q-1.53-4.34-3-8.39L1.31,53.91,0,53.57v5.36L23.06,73.71Z"/><path class="cls-16" d="M59.35,157.14q-3-11.1-6-21.62l-7.79,30.7Z"/><polygon class="cls-16" points="87.02 85.57 75.91 97.71 75.11 98.59 66.09 108.44 66.17 108.7 77.61 145.14 84.79 140.42 96.46 111.22 92.22 99.69 87.02 85.57"/><path class="cls-16" d="M102.59,127.88h0l-.76-2.06c-.25.65-.5,1.29-.76,1.94-.34.9-.68,1.78-1,2.65l2.79-1.84Z"/><path class="cls-17" d="M139.43,37.51l6.62,17.55,8.55-.82,4.24-.41V47.7L141.59,33.26C140.88,34.63,140.16,36,139.43,37.51Z"/><polygon class="cls-5" points="74.56 51.82 74.56 51.81 51.41 61.66 51.41 61.66 52.19 64.14 71.92 62.23 74.56 51.82"/><polygon class="cls-8" points="75.91 97.71 87.02 85.57 86.58 84.38 78.21 61.63 76.17 61.82 71.92 62.23 62.83 98.05 66.09 108.44 75.11 98.59 75.91 97.71"/><polygon class="cls-12" points="74.56 51.82 71.92 62.23 76.17 61.82 78.21 61.63 78.02 61.09 74.6 51.8 74.56 51.81 74.56 51.82"/><polygon class="cls-18" points="0 172.62 7.62 172.62 0 165.13 0 172.62"/><polygon class="cls-19" points="146.05 55.06 146.04 55.07 146.05 55.06 143.31 59.67 124.7 90.84 140.12 104.08 158.84 91.78 158.84 53.83 154.6 54.24 146.05 55.06"/><polygon class="cls-20" points="102.59 127.88 102.59 127.88 103.01 128.45 140.12 104.08 124.7 90.84 102.59 127.87 102.59 127.88"/><path class="cls-21" d="M124.7,90.84l18.61-31.17,2.74-4.61h0l-15.64,1.51c-1.3,2.9-2.65,5.92-4,9.06q-4,9.08-8.3,19.51h0l6.61,5.68Z"/><path class="cls-21" d="M96.35,66.47l13.29,11.42h0c.55-1.47,1.08-2.93,1.6-4.37q2.83-8,5.14-15.58l-26.93,2.6Z"/><path class="cls-10" d="M158.84,16V14.31h-6.22c-1.22,1.75-2.5,3.73-3.84,6Z"/><path class="cls-11" d="M121.84,14.31h-2.9l3.62,3C122.36,16.36,122.12,15.33,121.84,14.31Z"/><polygon class="cls-22" points="64.06 23.17 60.8 14.31 59.64 14.31 44.99 14.31 35.66 14.31 58.71 34.12 64.06 23.17"/><path class="cls-23" d="M29.52,61.29q-.89-2.43-1.76-4.75-2.21-5.85-4.3-11.08Q15.25,25,8.66,14.31H0V53.57l1.31.34Z"/><polygon class="cls-12" points="68.39 14.31 60.8 14.31 64.06 23.17 68.39 14.31"/><polygon class="cls-24" points="49.94 172.62 62.22 172.62 55.02 169.85 49.94 172.62"/><path class="cls-25" d="M141.59,33.26,158.84,47.7V16l-10.06,4.28c-.78,1.29-1.59,2.67-2.41,4.12Q144.09,28.41,141.59,33.26Z"/><polygon class="cls-26" points="35.79 172.62 46.15 172.62 45.54 166.22 35.79 172.62"/><path class="cls-26" d="M55,169.85l6.78-3.69c-.81-3-1.63-6-2.44-9l-13.81,9.08Z"/><polygon class="cls-26" points="79.94 152.57 84.79 140.42 77.61 145.14 79.94 152.57"/><path class="cls-26" d="M102.84,128.56l-2.79,1.84q-4,10.2-7.23,18.83l14.68-8Z"/><polygon class="cls-18" points="45.54 166.22 46.15 172.62 49.94 172.62 55.02 169.85 45.54 166.22"/><polygon class="cls-13" points="0 148.72 0 165.13 0 165.13 7.62 172.62 7.63 172.62 35.79 172.62 45.54 166.22 0 148.72"/><polygon class="cls-27" points="0 58.93 0 83.52 23.06 73.72 0 58.93"/><polygon class="cls-28" points="12.22 105.18 23.06 73.72 0 83.52 0 89.9 0 123.2 4.54 127.48 12.22 105.18"/><polygon class="cls-26" points="4.54 127.48 0 123.2 0 148.72 45.54 166.22 4.54 127.48"/><polygon class="cls-29" points="153.89 157.74 158.84 157.33 158.84 120.18 153.88 115.91 153.89 157.74"/><polygon class="cls-30" points="153.88 157.74 153.89 157.74 153.88 115.91 111.02 139.29 153.88 157.74"/><polygon class="cls-31" points="126.34 160.03 153.88 157.74 111.02 139.29 126.34 160.03"/><path class="cls-14" d="M55,169.85l7.21,2.77H63.5q-.86-3.26-1.71-6.46Z"/><path class="cls-14" d="M92.82,149.23c-3.56,9.34-6.53,17.2-9,23.39h35.21l-11.55-31.4Z"/><polygon class="cls-32" points="111.02 139.29 107.5 141.22 119.05 172.62 135.64 172.62 126.34 160.03 111.02 139.29"/><polygon class="cls-33" points="153.88 157.74 126.34 160.03 135.64 172.62 158.84 172.62 158.84 157.33 158.84 157.33 153.89 157.74 153.88 157.74"/><path class="cls-34" d="M152.62,14.31l.32-.46H121.72l.12.46c.28,1,.52,2,.72,3,.17.79.31,1.55.42,2.27a30.79,30.79,0,0,1,.42,4.8c0,.2,0,.42,0,.64a51,51,0,0,1-.59,6.27,168.68,168.68,0,0,1-4,18q-1.14,4.26-2.46,8.66h0q-2.3,7.59-5.14,15.58c-.52,1.44-1,2.9-1.6,4.37h0c-.93,2.53-1.91,5.08-2.92,7.66L96.46,111.22l-11.67,29.2-4.85,12.15-2.33-7.43L66.17,108.7l-.08-.26L62.83,98.05,52.19,64.14l-.78-2.48h0l-.29-.92L49,54Q46.13,44.71,43.86,38c-1.2-3.53-2.41-6.89-3.65-10.11-.87-2.28-1.76-4.49-2.66-6.61q-1.8-4.92-3.48-6.18a5.55,5.55,0,0,0-2.06-.8,28.33,28.33,0,0,0-5.75-.46H8.38c.09.15.18.31.28.46Q15.25,25,23.46,45.46q2.1,5.22,4.3,11.08.87,2.33,1.76,4.75,1.5,4.05,3,8.39L33.71,73q4,11.48,8,24.15,2,6.36,4.06,13,3.75,12.22,7.51,25.4,3,10.51,6,21.62c.81,3,1.63,6,2.44,9q.85,3.21,1.71,6.46c0,.12.07.25.1.37H83.69l.15-.37c2.45-6.19,5.42-14.05,9-23.39q3.27-8.61,7.23-18.83c.34-.87.68-1.75,1-2.65.26-.65.51-1.29.76-1.94q8.69-22.4,16.26-40.66h0q4.34-10.43,8.3-19.51c1.37-3.14,2.72-6.16,4-9.06h0q4.8-10.62,9-19.07c.73-1.47,1.45-2.88,2.16-4.25q2.49-4.84,4.78-8.87c.82-1.45,1.63-2.83,2.41-4.12h0C150.12,18,151.4,16.06,152.62,14.31Z"/><path class="cls-34" d="M246.83,91.07v2.5q0,8.54-10.45,15.94a40.25,40.25,0,0,1-23.84,7.39q-19.23,0-30.73-13.49t-11.5-36.3q0-23.23,12.13-36.88t32.41-13.65q14.84,0,24.14,8a25.39,25.39,0,0,1,9.31,20.16c0,3.33-1.89,5.56-5.65,6.66s-14.6,1.68-32.51,1.68c-5.3,0-9.42,0-12.39-.11s-5.73-.18-8.31-.31a34.67,34.67,0,0,0-1.2,5.78,53.23,53.23,0,0,0-.37,6.41q0,17.91,8.53,28.28t22.94,10.37a34.83,34.83,0,0,0,14.58-3.07,43.73,43.73,0,0,0,12.91-9.33M190.7,46.48h1.88c.27,0,2,.07,5.17.21s6.26.21,9.26.21h2.71q14.22,0,17.52-1.51t3.28-5.79a14.52,14.52,0,0,0-5.07-11.09A17.82,17.82,0,0,0,213,23.87a20.18,20.18,0,0,0-14.89,6.3,26.82,26.82,0,0,0-7.37,16.31"/><path class="cls-34" d="M325,115.55h-1a1,1,0,0,1-.69-.16c-.1-.1-.14-.39-.14-.88v-.83l-.64-15.63A37.91,37.91,0,0,1,310,112a30.44,30.44,0,0,1-31,1.36,24.52,24.52,0,0,1-9.83-10A37.22,37.22,0,0,1,265.89,92q-1-6.66-1-21.87V66.07q0-17.92.31-35.22c.07-2,.11-3.22.11-3.64a11,11,0,0,0-1-5.31,7.22,7.22,0,0,0-3.4-2.92l14-2.19a3.4,3.4,0,0,0,.84-.11,2.62,2.62,0,0,1,.52-.1c2,0,3.19.44,3.71,1.31s.79,2.92.79,6.19l-.53,49.49v1.24q0,15.64,4.71,22.35t15.26,6.73q11.8,0,16.72-8.18t4.92-30.27V40.65q0-10.63-1-15.47c-.66-3.23-1.75-5.3-3.29-6.2l20.91-2.4q-.53,8.13-.89,23.81t-.37,34.22v12q0,14.49,1,20t3.65,7.71Z"/><path class="cls-34" d="M444.08,19l-66.79,88.45h26.34q20.6,0,29.06-3a27.7,27.7,0,0,0,13.69-10.26l-2.71,20.11H354.6L421.39,26H401q-17.55,0-25.5,2.91a22.9,22.9,0,0,0-12.13,9.9L367.46,19Z"/><path class="cls-34" d="M442.52,164.69l.4-1.13a12,12,0,0,0-3-.47c-2.4,0-3.66.69-3.66,2.86,0,1.73,1.23,2.3,3.46,2.46,1.77.15,2.27.62,2.27,1.61,0,1.46-.77,1.71-2.27,1.71a9,9,0,0,1-3-.53l-.36,1.11a12.33,12.33,0,0,0,3.33.5c2.45,0,3.57-.71,3.57-2.9,0-1.72-1-2.48-3.42-2.65-1.67-.11-2.31-.51-2.31-1.42,0-1.44.79-1.66,2.36-1.66A7.75,7.75,0,0,1,442.52,164.69Zm-15.73-.49c1.7,0,2.31.49,2.42,2.79H424C424.12,164.82,424.85,164.2,426.79,164.2Zm0-1.11c-2.74,0-4.15,1.2-4.15,4.81,0,3.78,1.52,4.91,4.31,4.91a12.37,12.37,0,0,0,3-.51l-.27-1.1a9.35,9.35,0,0,1-2.66.49c-2.14,0-3.09-.63-3.11-3.62h6.61C430.56,164.14,429.41,163.09,426.79,163.09Zm-14.08,8.59c-2.16,0-2.87-.61-2.87-3.72s.71-3.74,2.87-3.74c1.37,0,2.55.45,2.55,1.29v5.78A7.85,7.85,0,0,1,412.71,171.68Zm0-8.59c-2.87,0-4.19,1.13-4.19,4.88s1.34,4.84,4.19,4.84a10.55,10.55,0,0,0,3.74-.73v-12.7h-1.19v4.45A4,4,0,0,0,412.71,163.09Zm-14.35,1.09c2.18,0,2.89.62,2.89,3.76s-.71,3.77-2.89,3.77-2.87-.78-2.87-3.77S396.2,164.18,398.36,164.18Zm0,8.63c2.89,0,4.21-1.13,4.21-4.91s-1.34-4.81-4.21-4.81-4.19,1-4.19,4.81S395.49,172.81,398.36,172.81Zm-9.65-1.61a5.77,5.77,0,0,1-2.25.48c-2.16,0-3.15-.75-3.15-3.74s1-3.72,3.15-3.72a5.44,5.44,0,0,1,2.25.43l.38-1.11a9,9,0,0,0-2.63-.45c-2.86,0-4.47,1-4.47,4.81s1.59,4.91,4.47,4.91a7.5,7.5,0,0,0,2.63-.51Zm-23.56-11.36v12.71h1.32V159.84Zm-16.21,4.85.41-1.13a12.05,12.05,0,0,0-3-.47c-2.4,0-3.66.69-3.66,2.86,0,1.73,1.22,2.3,3.46,2.46,1.77.15,2.27.62,2.27,1.61,0,1.46-.77,1.71-2.27,1.71a9,9,0,0,1-3-.53l-.36,1.11a12.33,12.33,0,0,0,3.33.5c2.45,0,3.56-.71,3.56-2.9,0-1.72-1-2.48-3.42-2.65-1.66-.11-2.3-.51-2.3-1.42,0-1.44.78-1.66,2.36-1.66A7.74,7.74,0,0,1,348.94,164.69Zm-16.16,7c-2.16,0-2.87-.61-2.87-3.72s.71-3.74,2.87-3.74c1.37,0,2.54.45,2.54,1.29v5.78A7.74,7.74,0,0,1,332.78,171.68Zm0-8.59c-2.87,0-4.19,1.13-4.19,4.88s1.33,4.84,4.19,4.84a10.45,10.45,0,0,0,3.73-.73v-12.7h-1.19v4.45A3.91,3.91,0,0,0,332.78,163.09Zm-10.09,0a3.44,3.44,0,0,0-2.6.91v-.66H318.9v9.21h1.19v-7c0-.84,1.22-1.22,2.6-1.22a8.8,8.8,0,0,1,.95.07v-1.22A7.18,7.18,0,0,0,322.69,163.09Zm-14.19,1.09c2.18,0,2.89.62,2.89,3.76s-.71,3.77-2.89,3.77-2.87-.78-2.87-3.77S306.34,164.18,308.5,164.18Zm0,8.63c2.89,0,4.21-1.13,4.21-4.91s-1.34-4.81-4.21-4.81-4.19,1-4.19,4.81S305.63,172.81,308.5,172.81ZM299,163.34H297.7a64.75,64.75,0,0,1-2.6,8.08c-.55-2.42-1.44-5.93-2.19-8.08h-1.52a82.72,82.72,0,0,1-2.4,8.08,74.59,74.59,0,0,0-2.49-8.08h-1.41a87.3,87.3,0,0,1,3,9.21h1.69c.82-2.28,1.75-5.32,2.38-7.84.58,1.71,1.51,5.31,2,7.84h1.68A72.44,72.44,0,0,0,299,163.34ZM269,159.84v12.71h1.32V159.84Zm-16.21,4.85.4-1.13a11.92,11.92,0,0,0-3-.47c-2.39,0-3.66.69-3.66,2.86,0,1.73,1.23,2.3,3.46,2.46,1.78.15,2.27.62,2.27,1.61,0,1.46-.77,1.71-2.27,1.71a8.89,8.89,0,0,1-3-.53l-.37,1.11a12.44,12.44,0,0,0,3.33.5c2.45,0,3.57-.71,3.57-2.9,0-1.72-1-2.48-3.42-2.65-1.67-.11-2.31-.51-2.31-1.42,0-1.44.79-1.66,2.36-1.66A7.75,7.75,0,0,1,252.74,164.69Zm-18.6-.16a7.58,7.58,0,0,1,2.32-.31c2.09,0,2.68.56,2.68,3.37v5h1.18v-5.2c0-3.35-1-4.26-3.64-4.26a10.32,10.32,0,0,0-3.73.73v8.73h1.19Zm-11.35-.31a7.79,7.79,0,0,1,2.54.38v5.76c0,.86-1.17,1.32-2.54,1.32-2.16,0-2.87-.75-2.87-3.74S220.63,164.22,222.79,164.22Zm3.73-.4a10.32,10.32,0,0,0-3.73-.73c-2.86,0-4.19,1-4.19,4.81s1.32,4.91,4.19,4.91a3.85,3.85,0,0,0,2.54-.77c0,2.46-1.22,3.08-3.38,3.08a7.81,7.81,0,0,1-2.64-.53l-.35,1.14a10.25,10.25,0,0,0,3,.52c2.87,0,4.57-1,4.57-4.37Zm-14.69-4c-.58,0-.76.09-.76.71s.18.79.76.79.75-.11.75-.79S212.4,159.84,211.83,159.84Zm.57,12.71h-1.19v-9.21h1.19Zm-8.06-7.86.41-1.13a12.05,12.05,0,0,0-3-.47c-2.4,0-3.66.69-3.66,2.86,0,1.73,1.22,2.3,3.46,2.46,1.77.15,2.27.62,2.27,1.61,0,1.46-.77,1.71-2.27,1.71a8.91,8.91,0,0,1-3-.53l-.36,1.11a12.33,12.33,0,0,0,3.33.5c2.45,0,3.56-.71,3.56-2.9,0-1.72-1-2.48-3.42-2.65-1.66-.11-2.3-.51-2.3-1.42,0-1.44.78-1.66,2.36-1.66A7.74,7.74,0,0,1,204.34,164.69Zm-15.72-.49c1.7,0,2.3.49,2.41,2.79H185.8C186,164.82,186.68,164.2,188.62,164.2Zm0-1.11c-2.75,0-4.16,1.2-4.16,4.81,0,3.78,1.52,4.91,4.32,4.91a12.37,12.37,0,0,0,3-.51l-.27-1.1a9.35,9.35,0,0,1-2.66.49c-2.14,0-3.09-.63-3.11-3.62h6.61C192.39,164.14,191.23,163.09,188.62,163.09Zm-14.08,8.59c-2.16,0-2.87-.61-2.87-3.72s.71-3.74,2.87-3.74c1.37,0,2.54.45,2.54,1.29v5.78A7.74,7.74,0,0,1,174.54,171.68Zm0-8.59c-2.87,0-4.19,1.13-4.19,4.88s1.33,4.84,4.19,4.84a10.45,10.45,0,0,0,3.73-.73v-12.7h-1.19v4.45A3.91,3.91,0,0,0,174.54,163.09Z"/><polygon class="cls-35" points="273.93 134.42 249.2 155.32 276.55 155.32 273.93 134.43 273.93 134.42"/><polygon class="cls-36" points="276.55 155.32 286.29 155.32 273.93 134.43 276.55 155.32"/><polygon class="cls-37" points="278.62 122.55 266.91 122.55 273.93 134.42 278.62 122.55"/><polygon class="cls-38" points="287.97 122.55 278.62 122.55 273.93 134.42 276.85 131.95 287.97 122.55"/><polygon class="cls-39" points="332.56 122.55 366.92 155.32 384.5 155.32 385.32 122.55 332.56 122.55"/><path class="cls-40" d="M440.26,125.5,404,155.32h29a10.13,10.13,0,0,0,10.23-10V132.61A10,10,0,0,0,440.26,125.5Z"/><polygon class="cls-41" points="273.93 134.42 204.5 127.36 211.88 155.32 249.14 155.32 273.93 134.42 273.93 134.42 273.93 134.42"/><path class="cls-42" d="M198.63,126.76,170.35,141.3v4a10.14,10.14,0,0,0,10.24,10h31.29l-7.38-28Z"/><path class="cls-40" d="M433,122.55H385.33l-.83,32.77H404l36.25-29.82A10.33,10.33,0,0,0,433,122.55Z"/><polygon class="cls-43" points="287.98 122.55 276.85 131.95 273.93 134.42 273.93 134.42 273.93 134.42 266.91 122.55 206.82 122.55 198.63 126.76 204.5 127.36 273.93 134.42 273.93 134.42 273.93 134.42 273.93 134.42 273.93 134.43 286.29 155.32 366.92 155.32 332.56 122.55 287.98 122.55"/><path class="cls-44" d="M206.82,122.55H180.59a10.15,10.15,0,0,0-10.24,10.06v8.69l28.28-14.54Z"/><path class="cls-45" d="M427.19,130a20.15,20.15,0,0,0-5.43-.77c-4.91,0-7.76,1.58-7.76,5.78,0,3.43,2,4.69,6.31,5,3.66.32,4.52,1.5,4.52,3.13,0,2.39-1.83,3.06-5,3.06a18.47,18.47,0,0,1-4.87-.67l-.67,2.35a19.68,19.68,0,0,0,5.59.81c5,0,7.82-1.5,7.82-5.68,0-3.48-2-5.09-6.37-5.49-3.55-.3-4.43-1.16-4.43-2.79,0-2.36,1.69-3,4.83-3a16.14,16.14,0,0,1,4.79.67ZM391,148.31V132h6.4v-2.33H381.76V132h6.42v16.34Zm-36.83,0V141.8h6.42c3.74,0,5.16-2.86,5.16-5.92,0-3.43-1.21-6.24-5.27-6.24h-9.05v18.67Zm0-8.84v-7.53H360c1.75,0,2.66,1.4,2.66,3.92,0,2.25-.91,3.61-2.77,3.61Zm-34.28-9.83v18.67H333V146H322.55v-6.4H330v-2.3h-7.45V132H333v-2.33Zm-32.08,9.16c0,7.61,2.8,9.89,8.68,9.89a20.83,20.83,0,0,0,5.3-.7l-.67-2.44a15.12,15.12,0,0,1-4.3.62c-4.41,0-6-1.07-6-7.34s1.64-7.15,6-7.15a14.43,14.43,0,0,1,4.3.64l.67-2.44a22.13,22.13,0,0,0-5.3-.69C290.56,129.19,287.76,131.17,287.76,138.8Zm-19.14-9.16h-2.75v14.63c-2.71-4.93-5.69-10-8.73-14.63h-3.63v18.67h2.69v-15.4c3.25,5.12,6.34,10.34,9.08,15.4h3.34Zm-43,16.61c-4.44,0-5.76-1.29-5.76-7.34,0-6.27,1.32-7.31,5.76-7.31s5.8,1,5.8,7.31C231.46,145,230.12,146.25,225.66,146.25Zm0-17.06c-5.89,0-8.71,2.06-8.71,9.67s2.82,9.83,8.71,9.83,8.7-2.15,8.7-9.83S231.54,129.19,225.66,129.19Zm-39.79,9.61c0,7.61,2.79,9.89,8.68,9.89a20.81,20.81,0,0,0,5.29-.7l-.67-2.44a15.12,15.12,0,0,1-4.3.62c-4.41,0-6.05-1.07-6.05-7.34s1.64-7.15,6.05-7.15a14.43,14.43,0,0,1,4.3.64l.67-2.44a22,22,0,0,0-5.29-.69C188.66,129.19,185.87,131.17,185.87,138.8Z"/><path class="cls-34" d="M463.68,8.93h.6a9,9,0,1,1-9-8.93,9,9,0,0,1,9,8.93h-1.2a7.77,7.77,0,1,0-7.77,7.75,7.77,7.77,0,0,0,7.77-7.75Z"/><path class="cls-34" d="M459,13.23h-1.48c-1.29-2.41-2.21-3.54-2.78-3.54h-1.34v3.54h-1.18V4.53h3.95c1.77,0,2.28,1.16,2.28,2.53a2.08,2.08,0,0,1-2.25,2.34C456.81,9.61,457.7,10.86,459,13.23Zm-5.6-4.62H456c.78,0,1.2-.54,1.2-1.46S456.75,5.6,456,5.6h-2.58Z"/></g></g></svg>